<?xml version="1.0" standalone="no"?>
<!DOCTYPE svg PUBLIC "-//W3C//DTD SVG 20010904//EN"
 "http://www.w3.org/TR/2001/REC-SVG-20010904/DTD/svg10.dtd">
<svg version="1.0" xmlns="http://www.w3.org/2000/svg"
 width="1045.000000pt" height="1045.000000pt" viewBox="0 0 1045.000000 1045.000000"
 preserveAspectRatio="xMidYMid meet">
<metadata>
Created by potrace 1.14, written by Peter Selinger 2001-2017
</metadata>
<g transform="translate(0.000000,1045.000000) scale(0.100000,-0.100000)"
fill="#000000" stroke="none">
<path d="M966 9065 c-44 -16 -84 -56 -92 -94 -10 -46 -12 -49 -43 -56 -87 -19
-258 -96 -355 -160 l-69 -45 -42 14 c-142 49 -277 -90 -224 -230 10 -26 24
-51 30 -55 9 -5 5 -32 -14 -100 -33 -117 -41 -186 -39 -319 l1 -105 -29 -20
c-16 -11 -42 -42 -57 -70 -22 -41 -27 -62 -27 -117 1 -57 6 -75 30 -115 33
-52 91 -98 143 -110 32 -8 36 -13 76 -119 23 -61 71 -169 107 -241 l65 -130
-23 -41 c-68 -122 -41 -275 65 -370 64 -56 175 -82 262 -63 36 8 38 7 83 -44
25 -29 90 -97 145 -151 l99 -98 -23 -35 c-87 -134 -67 -329 46 -439 180 -177
464 -129 575 97 49 99 40 247 -19 336 -120 179 -341 222 -513 100 l-48 -34
-53 57 c-30 31 -88 99 -130 150 l-76 93 41 35 c22 19 53 60 69 92 36 74 38
181 4 252 -26 56 -82 115 -134 142 -81 41 -202 40 -276 -3 -18 -11 -35 -18
-37 -16 -2 2 -29 56 -59 121 -72 153 -128 300 -115 304 38 13 109 75 135 116
26 42 30 59 29 116 -1 138 -102 240 -237 240 l-39 0 5 123 c5 111 23 219 46
281 8 20 17 24 69 28 45 3 69 11 95 31 60 46 86 130 62 201 -8 22 -13 41 -12
42 1 0 29 19 62 41 76 51 202 115 284 144 63 22 64 22 80 3 37 -45 73 -64 120
-64 75 0 121 33 147 105 l11 30 114 1 c117 1 227 -13 338 -44 l63 -18 2 -47
c1 -39 8 -53 34 -80 28 -27 39 -32 82 -32 43 0 54 5 82 33 28 28 33 39 33 82
0 42 -5 54 -30 80 -43 42 -106 51 -149 19 -17 -12 -35 -29 -39 -36 -6 -9 -13
-11 -20 -5 -31 24 -225 76 -327 88 -19 2 -69 5 -112 6 -75 3 -76 4 -94 36 -33
62 -111 91 -178 67z"/>
<path d="M9326 9070 c-34 -11 -63 -35 -87 -74 -16 -27 -23 -29 -86 -32 -160
-6 -362 -49 -439 -92 -11 -6 -23 -1 -43 19 -70 69 -199 30 -203 -62 -3 -80 31
-126 102 -135 78 -9 130 39 130 121 0 23 6 37 18 43 20 10 103 32 147 38 17 2
55 8 85 13 29 5 102 9 161 10 l107 2 7 -30 c26 -118 192 -152 263 -54 19 27
20 27 63 13 75 -24 210 -91 292 -144 72 -47 77 -53 70 -76 -4 -14 -8 -50 -8
-81 0 -98 74 -169 177 -169 45 0 46 0 57 -42 7 -24 12 -45 11 -48 -1 -3 3 -17
9 -32 11 -30 24 -150 23 -218 -1 -94 4 -87 -61 -93 -103 -9 -191 -88 -210
-190 -20 -111 32 -211 142 -266 15 -8 27 -17 27 -21 0 -15 -82 -214 -128 -312
l-51 -107 -56 25 c-129 59 -281 19 -365 -98 -91 -126 -59 -323 68 -410 l22
-15 -52 -64 c-55 -67 -94 -111 -167 -191 l-44 -48 -31 23 c-118 90 -261 106
-386 43 -27 -13 -62 -37 -79 -52 -32 -28 -91 -114 -95 -136 -1 -7 -5 -18 -9
-24 -4 -7 -9 -40 -11 -74 -11 -159 80 -307 224 -361 80 -30 136 -31 249 -5 43
10 130 75 166 124 40 54 67 135 69 208 2 56 -25 153 -55 195 -10 15 -19 30
-19 33 0 3 48 54 108 113 59 59 124 127 144 150 36 40 39 41 73 32 81 -23 197
8 268 70 92 82 121 239 64 352 l-28 55 64 130 c56 113 121 263 141 330 5 15
18 24 42 29 104 19 183 135 171 250 -7 64 -28 108 -75 152 l-35 33 -3 138 c-2
134 -17 232 -48 320 -15 42 -15 44 9 80 63 96 18 229 -89 265 -46 15 -100 13
-133 -4 -19 -10 -31 -5 -93 36 -80 53 -210 114 -317 147 -70 22 -72 23 -82 63
-20 78 -107 128 -185 105z"/>
<path d="M5148 8135 c-2 -1 -26 -5 -54 -9 -28 -3 -82 -15 -119 -27 -117 -36
-131 -45 -550 -354 -93 -69 -189 -139 -212 -156 l-43 -30 -232 85 c-429 155
-944 306 -1268 371 -144 29 -285 55 -325 60 -27 4 -57 8 -65 11 -8 2 -38 6
-65 9 -28 3 -63 7 -80 10 -162 22 -444 26 -584 8 -113 -14 -258 -58 -318 -96
-188 -119 -219 -361 -85 -650 61 -130 188 -325 300 -459 11 -13 48 -57 83 -98
78 -93 441 -457 529 -530 105 -88 109 -88 30 -6 -41 43 -82 86 -90 96 -8 9
-35 39 -60 66 -88 95 -276 320 -342 409 -4 6 -18 24 -31 40 -205 267 -358 556
-385 731 -34 217 98 346 388 379 58 6 284 7 335 0 17 -2 66 -6 110 -10 70 -5
186 -18 265 -30 14 -2 45 -6 70 -10 25 -3 65 -10 90 -15 25 -5 59 -11 75 -14
68 -10 252 -51 440 -97 110 -28 207 -52 215 -54 122 -28 608 -183 879 -281 13
-4 -28 -37 -269 -213 -160 -118 -304 -223 -420 -308 -69 -51 -134 -99 -145
-107 -29 -21 -172 -126 -300 -221 -60 -44 -168 -123 -240 -175 -71 -52 -134
-98 -140 -103 -5 -4 -52 -39 -103 -77 -112 -85 -159 -133 -218 -227 -44 -69
-89 -182 -100 -248 -11 -64 -12 -213 -2 -265 9 -49 55 -200 212 -687 25 -79
66 -206 91 -283 101 -313 138 -429 163 -505 14 -44 26 -82 27 -85 0 -3 11 -36
24 -75 12 -38 58 -182 102 -320 44 -137 87 -268 94 -290 8 -22 48 -148 90
-280 42 -132 91 -283 107 -335 17 -52 41 -116 55 -143 17 -35 20 -49 11 -52
-24 -8 -272 -63 -313 -69 -22 -4 -76 -13 -120 -21 -44 -8 -96 -17 -115 -20
-19 -3 -46 -7 -60 -10 -14 -3 -38 -7 -55 -9 -46 -7 -118 -18 -135 -21 -9 -2
-43 -6 -75 -10 -33 -4 -69 -9 -79 -11 -133 -24 -574 -24 -700 0 -215 41 -298
141 -251 301 45 157 184 368 396 605 104 116 379 394 499 505 130 120 247 224
323 289 43 36 75 66 71 66 -18 0 -404 -300 -582 -453 -543 -466 -825 -841
-825 -1102 -1 -164 116 -284 310 -320 16 -3 39 -7 53 -10 125 -25 531 -26 690
-1 14 3 54 7 90 11 36 4 74 9 85 11 11 2 43 6 70 9 28 3 57 8 65 10 8 2 35 7
60 10 70 10 474 92 582 118 l96 24 29 -34 c87 -102 232 -185 403 -230 14 -4
721 -7 1573 -9 1658 -2 1621 -3 1747 48 122 49 260 150 311 230 4 6 36 3 80
-6 41 -9 117 -25 169 -36 52 -11 106 -23 120 -25 47 -9 195 -36 220 -40 75
-11 107 -17 120 -20 8 -2 38 -7 65 -10 28 -3 66 -7 85 -10 19 -2 64 -7 100
-10 36 -4 76 -9 90 -11 14 -3 122 -7 240 -8 244 -4 343 4 469 41 235 68 320
237 245 486 -16 55 -80 190 -127 267 -46 77 -227 325 -273 375 -11 11 -48 54
-83 95 -81 93 -445 458 -565 565 -50 44 -109 97 -133 119 -65 59 -51 31 20
-39 129 -128 312 -323 429 -455 31 -36 68 -78 83 -95 73 -82 238 -291 303
-385 269 -384 344 -653 211 -764 -45 -39 -80 -55 -167 -77 -82 -21 -213 -33
-352 -33 -88 0 -302 12 -336 18 -10 2 -49 7 -86 10 -37 4 -77 9 -90 11 -13 2
-44 6 -69 9 -25 4 -57 9 -70 11 -110 18 -149 25 -179 29 -19 3 -46 8 -60 11
-14 2 -83 16 -155 31 -71 14 -139 28 -150 30 -84 16 -84 17 -61 62 11 23 223
670 301 922 13 41 71 224 130 405 59 182 126 391 150 465 141 438 234 729 292
905 82 251 101 345 97 460 -6 153 -56 292 -150 415 -61 80 -99 113 -294 256
-96 70 -217 158 -267 196 -51 37 -137 100 -190 140 -54 39 -129 94 -168 123
-38 28 -146 107 -240 175 -93 69 -172 127 -175 130 -3 3 -27 21 -55 40 -27 19
-55 39 -61 45 -6 5 -49 37 -95 70 -46 33 -130 94 -187 136 l-103 77 78 29
c316 120 1030 321 1313 369 14 2 36 7 50 10 43 10 196 37 285 49 22 4 50 8 63
10 13 2 53 7 90 10 37 4 78 9 92 11 14 3 117 7 230 9 171 4 222 1 309 -15 229
-42 322 -134 316 -310 -9 -233 -218 -596 -609 -1060 -79 -94 -103 -121 -168
-191 -18 -20 -51 -56 -73 -80 -22 -24 -62 -69 -90 -99 -46 -50 -47 -52 -10
-21 176 148 427 397 606 601 202 232 356 476 427 680 22 63 26 93 26 190 1
104 -2 120 -25 170 -86 181 -279 260 -642 263 -102 1 -334 -9 -372 -17 -11 -2
-47 -7 -80 -10 -281 -32 -704 -123 -1100 -237 -183 -53 -481 -152 -672 -224
l-153 -57 -52 38 c-29 22 -165 121 -303 222 -297 219 -377 262 -525 287 -40 7
-167 14 -172 10z m140 -1251 c135 -88 342 -237 392 -282 l45 -41 -70 -1 c-38
-1 -195 -1 -347 -1 -295 0 -308 -2 -308 -48 0 -44 12 -46 417 -46 l385 0 17
-33 c14 -27 19 -30 31 -20 12 11 12 10 1 -4 -10 -13 -10 -22 2 -45 42 -84 47
-285 9 -383 -3 -8 -6 -18 -6 -22 -1 -3 -4 -10 -8 -14 -5 -4 -8 -14 -8 -21 0
-50 -170 -327 -263 -429 -48 -53 -315 -321 -385 -388 l-31 -29 -231 232 c-126
128 -230 236 -230 242 0 9 36 10 484 10 151 0 267 4 278 10 21 11 25 63 6 76
-7 4 -198 8 -425 8 -226 0 -414 2 -416 5 -17 18 -82 130 -106 182 -124 264
-108 481 48 674 88 110 189 181 561 397 25 14 51 26 58 27 8 0 53 -25 100 -56z
m152 -2224 c188 -187 282 -304 354 -440 102 -193 107 -344 18 -487 l-27 -43
-398 0 c-255 0 -405 -4 -418 -10 -22 -13 -25 -52 -4 -70 10 -8 107 -12 367
-12 l353 0 -40 -35 c-83 -72 -214 -149 -356 -210 l-148 -62 -138 71 c-76 39
-163 87 -193 106 -106 67 -241 187 -291 260 -136 194 -62 461 218 778 l63 72
276 0 c195 1 280 4 290 13 18 15 18 53 1 68 -9 7 -94 12 -241 13 l-228 3 44
43 c23 23 83 81 132 128 l89 85 51 -48 c28 -26 130 -127 226 -223z"/>
<path d="M4719 6112 c-24 -17 -25 -58 -1 -70 9 -6 204 -9 445 -9 378 0 431 2
449 16 16 14 18 21 9 44 -6 15 -18 28 -28 28 -10 1 -206 2 -437 3 -331 1 -422
-2 -437 -12z"/>
<path d="M4712 4118 c-17 -17 -15 -53 3 -68 19 -16 881 -18 897 -2 15 15 13
63 -3 73 -23 14 -883 11 -897 -3z"/>
<path d="M1475 4848 c-80 -27 -139 -71 -184 -140 -70 -104 -80 -238 -26 -351
15 -31 32 -60 37 -63 6 -4 -30 -45 -79 -93 -48 -48 -115 -116 -148 -152 -55
-59 -63 -65 -89 -58 -48 13 -148 4 -196 -18 -157 -71 -223 -281 -132 -424 l20
-32 -62 -121 c-52 -102 -99 -211 -145 -336 -6 -19 -21 -28 -55 -38 -60 -16
-127 -81 -148 -144 -32 -91 -5 -193 66 -256 l35 -31 -1 -123 c0 -68 2 -133 5
-143 3 -11 9 -40 12 -63 4 -24 15 -72 26 -107 l19 -63 -26 -49 c-33 -66 -34
-120 -1 -176 45 -77 122 -107 206 -81 57 17 53 17 77 -4 51 -47 233 -136 352
-172 62 -19 73 -26 78 -48 24 -97 109 -147 199 -116 39 13 85 57 85 81 0 7 3
13 8 14 4 0 30 2 57 4 28 2 82 7 120 10 78 6 234 43 309 72 l49 20 26 -30 c20
-21 38 -30 71 -34 40 -4 49 -1 83 29 65 56 60 143 -10 189 -79 53 -194 -19
-181 -112 4 -26 1 -30 -41 -43 -96 -31 -211 -49 -343 -53 -137 -3 -138 -3
-138 19 0 32 -40 86 -79 104 -63 30 -132 16 -181 -38 l-29 -31 -63 23 c-83 30
-187 82 -273 137 -38 25 -71 47 -73 48 -2 2 2 13 8 26 7 12 12 47 12 77 -1 98
-75 170 -179 175 -47 2 -47 3 -61 47 -23 80 -39 190 -41 286 l-2 94 33 1 c79
2 140 30 190 88 42 49 55 90 53 161 -3 91 -58 171 -142 206 l-31 14 32 92 c37
106 145 338 157 338 4 0 10 -4 14 -9 18 -30 158 -52 225 -37 91 21 184 106
212 193 36 110 0 245 -83 316 -21 19 -39 36 -39 39 0 3 8 14 18 25 9 12 33 40
52 63 43 52 101 118 151 171 l38 41 38 -31 c44 -35 104 -62 153 -68 19 -3 44
-6 54 -7 11 -2 42 1 70 6 180 31 308 195 293 377 -18 228 -246 380 -462 309z"/>
<path d="M8644 4859 c-170 -32 -295 -199 -281 -375 24 -278 345 -424 563 -257
l46 34 26 -28 c53 -55 178 -199 206 -236 l29 -38 -41 -35 c-168 -143 -111
-426 100 -501 74 -27 206 -12 255 29 7 6 16 9 18 6 13 -13 127 -265 154 -340
l30 -88 -37 -16 c-85 -35 -136 -114 -136 -214 -1 -136 105 -240 245 -240 l32
0 -7 -122 c-3 -68 -11 -145 -17 -173 -5 -27 -12 -61 -15 -74 -10 -50 -22 -60
-67 -59 -57 1 -121 -33 -153 -81 -20 -30 -25 -52 -25 -94 0 -31 5 -65 11 -77
6 -12 10 -23 8 -25 -15 -13 -154 -97 -198 -120 -30 -15 -63 -31 -72 -36 -10
-5 -45 -19 -80 -30 l-62 -22 -20 25 c-49 59 -121 76 -188 44 -41 -20 -66 -51
-75 -97 l-6 -32 -141 6 c-136 6 -225 20 -332 52 -48 14 -50 16 -46 45 6 43
-15 86 -53 110 -122 75 -246 -83 -145 -185 26 -25 38 -30 80 -30 40 0 54 5 79
29 l31 30 68 -23 c136 -47 258 -69 410 -74 40 -2 54 -6 58 -20 15 -47 75 -87
132 -90 73 -3 137 46 151 116 6 27 15 32 111 66 115 41 225 94 305 147 50 34
54 35 86 22 36 -15 53 -15 111 -4 66 12 131 96 130 167 -1 42 -35 129 -50 129
-6 0 -2 22 9 50 37 99 52 202 52 361 l-1 105 29 20 c16 10 42 45 58 76 67 133
4 286 -139 333 l-45 15 -39 106 c-21 58 -69 166 -106 239 -60 118 -66 136 -54
152 19 26 44 102 47 148 16 191 -168 349 -358 308 -39 -9 -41 -8 -85 41 -25
28 -91 95 -146 151 l-102 100 24 36 c40 64 57 132 52 214 -14 214 -210 365
-424 324z"/>
</g>
</svg>
